# xmcd
#
# Track frame offsets: 
#        150
#        7800
#        25467
#        28459
#        47795
#        67624
#        85973
#        91104
#        111169
#        127582
#        131186
#        153266
#
# Disc length: 2424 seconds
#
# Revision: 0
# Processed by: cddbd v1.5.2PL0 Copyright (c) Steve Scherf et al.
# Submitted via: ExactAudioCopyFreeDBPlugin 1.0
#
DISCID=8d09760c
DTITLE=程璧 - 早生的虫铃 金子美玲童话诗集
DYEAR=2016
DGENRE=民谣
TTITLE0=序曲:虫声
TTITLE1=我和小鸟和铃铛
TTITLE2=清唱:泥泞
TTITLE3=当我寂寞的时候
TTITLE4=木
TTITLE5=向着明亮那方
TTITLE6=读诗:不可思议的事
TTITLE7=初秋
TTITLE8=船帆
TTITLE9=念白:外婆的话
TTITLE10=房总半岛最南端
TTITLE11=夜
EXTD=
EXTT0=
EXTT1=
EXTT2=
EXTT3=
EXTT4=
EXTT5=
EXTT6=
EXTT7=
EXTT8=
EXTT9=
EXTT10=
EXTT11=
PLAYORDER=
